<?xml version="1.0" encoding="UTF-8"?>
<svg version="1.1" xmlns="http://www.w3.org/2000/svg" width="256" height="256">
<path d="M0 0 C10.38879023 1.46268166 18.79415681 9.64342514 25.02734375 17.58203125 C36.34086259 33.3198312 38.16782414 49.30302635 35.375 67.9375 C35.20355469 68.92105469 35.03210938 69.90460938 34.85546875 70.91796875 C33.88401683 76.99577052 33.80651041 80.641062 37 86 C39.7459726 87.3729863 41.9589047 87.12412634 45 87 C45.99 86.67 46.98 86.34 48 86 C49.12501856 81.49992576 48.66434346 78.56730568 47.4296875 74.14453125 C46.36731411 68.84232225 47.28384024 64.33353886 49.8125 59.625 C51.77522559 57.26972929 53.31518452 55.47231817 56 54 C56.99 54.33 57.98 54.66 59 55 C58.01 55.99 58.01 55.99 57 57 C57.20060601 62.1637472 59.40169766 65.4898106 62.3125 69.5625 C66.79789251 76.14308376 71 83.79729273 71 92 C71.56976563 91.67644531 72.13953125 91.35289062 72.7265625 91.01953125 C77.40564438 88.9211801 82.36341944 89.44356261 87.125 91.0625 C92.042692 94.37659678 96.77608212 98.37169597 99 104 C99.37109375 106.40234375 99.37109375 106.40234375 99.4375 108.9375 C99.47746094 109.77152344 99.51742187 110.60554688 99.55859375 111.46484375 C98.52272503 116.16609407 94.80982108 118.42262756 91.046875 121.10546875 C89.95890625 121.79253906 88.8709375 122.47960937 87.75 123.1875 C87.15517822 123.56406738 86.56035645 123.94063477 85.94750977 124.32861328 C79.02942497 128.67234061 71.97284931 132.78857944 64.90600586 136.88427734 C62.59308885 138.23819444 60.29629577 139.61811892 58 141 C58.86689453 141.38744385 59.73378906 141.7748877 60.62695312 142.17407227 C63.8837944 143.63419005 67.13193104 145.11287734 70.37792969 146.59692383 C71.77606158 147.23309636 73.17641645 147.86440922 74.57910156 148.49047852 C94.50060856 157.39263553 94.50060856 157.39263553 98 166.5 C99.80606869 173.4310818 99.60158671 179.72585778 96 186 C91.52949396 191.23291792 86.75313805 193.43140031 79.91015625 194.25 C69.1695628 194.8540404 59.59266601 188.35838306 50.5 183.375 C49.36377197 182.75761963 48.22754395 182.14023926 47.05688477 181.50415039 C38.98113411 177.10805576 30.92730338 172.67175942 22.90234375 168.18359375 C22.27183105 167.83538574 21.64131836 167.48717773 20.99169922 167.12841797 C19.53994197 166.30590976 18.10617051 165.45141521 16.68408203 164.57861328 C15.90274902 164.11052246 15.12141602 163.64243164 14.31640625 163.16015625 C13.6107251 162.72453369 12.90504395 162.28891113 12.17797852 161.84008789 C9.31330133 160.73512721 7.91174953 161.07902953 5 162 C3.15702699 162.88188402 1.34832167 163.83729468 -0.4296875 164.84375 C-1.46488525 165.42616455 -2.50008301 166.0085791 -3.56665039 166.60864258 C-4.65840576 167.23279053 -5.75016113 167.85693848 -6.875 168.5 C-7.99962646 169.13639404 -9.12425293 169.77278809 -10.28295898 170.4284668 C-16.83787567 174.15142552 -23.34326035 177.94579089 -29.78588867 181.859375 C-34.3788807 184.64579455 -39.01693185 187.34565632 -43.6875 190 C-44.35982666 190.38647705 -45.03215332 190.7729541 -45.72485352 191.17114258 C-53.22971298 195.40610286 -60.53358541 196.31479776 -68.98828125 194.28125 C-74.30989953 192.4953754 -78.8187062 190.8232519 -82 186 C-84.20916972 179.27597373 -84.74646696 172.62734419 -82 166 C-79.06769083 160.62761581 -75.93460381 158.31089287 -70.6875 155.5625 C-69.99124512 155.18488525 -69.29499023 154.80727051 -68.57763672 154.41821289 C-49.11773896 144 -49.11773896 144 -45 144 C-47.6679995 140.82450059 -51.08547199 139.29126163 -54.75 137.53125 C-55.40452148 137.20966919 -56.05904297 136.88808838 -56.73339844 136.5567627 C-58.81947025 135.53200603 -60.9092024 134.51507646 -63 133.5 C-65.75346812 132.16319883 -68.50285252 130.81848402 -71.25 129.46875 C-71.88131836 129.16553833 -72.51263672 128.86232666 -73.16308594 128.54992676 C-76.21988744 127.04716612 -78.88911858 125.72173581 -81 123 C-83.22728794 116.31813617 -82.92843041 109.0946699 -80 102.6875 C-77.22810861 97.84060517 -73.85118317 93.84823254 -69 91 C-65.37801035 90.5326465 -63.26047629 90.36976186 -60 92 C-59.5875 91.030625 -59.175 90.06125 -58.75 89.0625 C-55.27804542 80.9795782 -51.62757706 73.04228484 -47.578125 65.23046875 C-44.93289759 60.07756575 -43.86178221 56.5045524 -43.9375 50.75 C-43.94652344 49.85796875 -43.95554688 48.9659375 -43.96484375 48.046875 C-43.97644531 47.37140625 -43.98804688 46.6959375 -44 46 C-39.59061785 46.50392939 -37.21156184 47.9620361 -34 51 C-32.24924752 53.89037179 -31.75328421 56.0465362 -31.7265625 59.40625 C-31.7059375 60.23253906 -31.6853125 61.05882812 -31.6640625 61.91015625 C-31.63802234 63.63661861 -31.61979206 65.36321644 -31.609375 67.08984375 C-31.52425502 72.23915635 -31.52425502 72.23915635 -28.9609375 76.59375 C-28.31382813 77.0578125 -27.66671875 77.521875 -27 78 C-27.04640625 77.24976562 -27.0928125 76.49953125 -27.140625 75.7265625 C-27.51056851 65.23602155 -25.02694021 57.69891886 -18.3984375 49.55078125 C-14.61469801 45.52670651 -10.50782559 41.83613073 -6.33081055 38.22363281 C-0.43408845 32.97303367 3.36126376 27.20620335 4.04296875 19.13671875 C3.91176635 12.6123813 1.88773582 6.20256055 0 0 Z " fill="#FC876B" transform="translate(120,40)"/>
<path d="M0 0 C4.917692 3.31409678 9.65108212 7.30919597 11.875 12.9375 C12.24609375 15.33984375 12.24609375 15.33984375 12.3125 17.875 C12.37244141 19.12603516 12.37244141 19.12603516 12.43359375 20.40234375 C11.39772503 25.10359407 7.68482108 27.36012756 3.921875 30.04296875 C2.83390625 30.73003906 1.7459375 31.41710937 0.625 32.125 C0.03017822 32.50156738 -0.56464355 32.87813477 -1.17749023 33.26611328 C-8.09557503 37.60984061 -15.15215069 41.72607944 -22.21899414 45.82177734 C-24.53191115 47.17569444 -26.82870423 48.55561892 -29.125 49.9375 C-28.25810547 50.32494385 -27.39121094 50.7123877 -26.49804688 51.11157227 C-23.2412056 52.57169005 -19.99306896 54.05037734 -16.74707031 55.53442383 C-15.34893842 56.17059636 -13.94858355 56.80190922 -12.54589844 57.42797852 C7.37560856 66.33013553 7.37560856 66.33013553 10.875 75.4375 C12.68106869 82.3685818 12.47658671 88.66335778 8.875 94.9375 C4.40449396 100.17041792 -0.37186195 102.36890031 -7.21484375 103.1875 C-17.9554372 103.7915404 -27.53233399 97.29588306 -36.625 92.3125 C-37.76122803 91.69511963 -38.89745605 91.07773926 -40.06811523 90.44165039 C-48.14386589 86.04555576 -56.19769662 81.60925942 -64.22265625 77.12109375 C-64.85582764 76.77054932 -65.48899902 76.42000488 -66.14135742 76.05883789 C-67.56333232 75.25500642 -68.97094052 74.42555362 -70.3684082 73.57983398 C-75.06839769 70.79618118 -78.60577605 69.30126497 -84.1875 69.125 C-85.31285156 69.07730469 -86.43820313 69.02960938 -87.59765625 68.98046875 C-88.84869141 68.95919922 -88.84869141 68.95919922 -90.125 68.9375 C-90.125 68.6075 -90.125 68.2775 -90.125 67.9375 C-88.82046875 67.88851562 -87.5159375 67.83953125 -86.171875 67.7890625 C-67.92516097 67.0442273 -50.09342008 65.5008618 -35.60546875 53.1015625 C-34.125 51.9375 -34.125 51.9375 -31.125 50.9375 C-30.40903987 49.62997435 -29.74704328 48.29222668 -29.125 46.9375 C-28.20640271 45.77645767 -27.26745268 44.63132916 -26.3125 43.5 C-18.76537695 33.64064563 -17.11420773 22.07344871 -16.5625 10.0625 C-16.49772461 8.74378906 -16.49772461 8.74378906 -16.43164062 7.3984375 C-16.32630661 5.24494203 -16.22522351 3.09123936 -16.125 0.9375 C-10.73418751 -1.89757922 -5.77524053 -1.96358178 0 0 Z " fill="#B97460" transform="translate(207.125,131.0625)"/>
<path d="M0 0 C0.66 0.33 1.32 0.66 2 1 C1.896875 2.216875 1.79375 3.43375 1.6875 4.6875 C1.71617109 7.96173844 1.83280501 8.77707334 3.875 11.5 C5.63860114 13.0073514 7.49313517 14.37087703 9.34765625 15.765625 C17.16416103 21.75474179 23.23857836 27.95989668 25 38 C25.79493382 45.32829617 24.77536001 51.59734267 21 58 C16.9699868 62.62210045 12.45789321 65.52322227 6.30859375 66.37109375 C-2.949651 66.58523002 -11.06247111 64.19909555 -18.5625 58.625 C-24.18290086 52.57226061 -24.48656145 47.12714388 -24.29296875 39.09765625 C-23.77206801 33.58999909 -21.78786277 29.11724214 -18 25 C-17.34 25 -16.68 25 -16 25 C-15.34 27.97 -14.68 30.94 -14 34 C-12.02 34.33 -10.04 34.66 -8 35 C-5.03414691 31.72756871 -4.67290597 29.71548378 -4.8828125 25.3515625 C-4.91503906 24.26359375 -4.94726562 23.175625 -4.98046875 22.0546875 C-5.07650873 19.77568468 -5.1806235 17.49700724 -5.29296875 15.21875 C-5.54693878 5.87706959 -5.54693878 5.87706959 -2.4921875 2.2109375 C-1.66976562 1.48132813 -0.84734375 0.75171875 0 0 Z " fill="#FDD1A4" transform="translate(124,121)"/>
<path d="M0 0 C4.02968338 3.38674513 6.69051978 7.75031685 7.40625 12.953125 C7.59308998 19.52366437 7.49316283 24.38535475 2.95703125 29.41015625 C-2.95155897 34.2101487 -9.69069853 35.6952585 -17.19140625 35.38671875 C-23.44250195 34.52599765 -28.83958414 32.45497395 -34.0625 28.9375 C-37.77791643 23.30444928 -38.61444589 16.78671188 -37.375 10.1875 C-35.90993143 4.91325315 -33.59654299 1.06436199 -29 -2 C-18.90733971 -5.28315455 -9.49656301 -4.92190706 0 0 Z " fill="#D4A47C" transform="translate(74,200)"/>
<path d="M0 0 C6.06127937 5.27121444 8.58409053 10.4249958 9.3125 18.4375 C8.77499122 24.56510005 7.3509275 29.12560404 2.75 33.375 C-3.09855682 37.87765462 -9.80388067 38.90244493 -17 38 C-23.09230987 36.62877014 -27.00474644 34.66348251 -30.5625 29.4375 C-33.98956279 23.68042285 -34.73502188 18.62554932 -34 12 C-31.06211288 6.0112301 -26.3169799 1.79527077 -20.1875 -0.8125 C-13.58133229 -3.03136549 -6.36628013 -2.82945784 0 0 Z " fill="#D4A47C" transform="translate(210,196)"/>
<path d="M0 0 C2.64632464 1.65039601 5.21493999 3.39367729 7.79296875 5.1484375 C16.03885707 9.90915743 24.26633876 11.86268934 33.625 13.25 C34.72457031 13.42273438 35.82414062 13.59546875 36.95703125 13.7734375 C39.63657742 14.19284473 42.31728377 14.60146895 45 15 C45 15.66 45 16.32 45 17 C44.32122803 17.37697021 43.64245605 17.75394043 42.94311523 18.14233398 C25.37806707 27.90194629 25.37806707 27.90194629 8.0859375 38.1328125 C7.06757812 38.74898437 6.04921875 39.36515625 5 40 C4.3802832 40.38381836 3.76056641 40.76763672 3.12207031 41.16308594 C1.45013941 42.17003453 -0.27223277 43.0921901 -2 44 C-2.66 43.67 -3.32 43.34 -4 43 C-3.35160156 42.30519531 -2.70320313 41.61039063 -2.03515625 40.89453125 C1.435159 35.95882377 0.79208059 30.80391797 0 25 C-1.72061172 19.95710114 -4.37366209 17.03399961 -9.0625 14.5625 C-16.91411625 11.09535065 -24.69180958 11.58583993 -33 13 C-27.90412446 8.71629398 -22.46130636 6.01262405 -16.5 3.125 C-15.46746094 2.60164062 -14.43492188 2.07828125 -13.37109375 1.5390625 C-12.37207031 1.054375 -11.37304688 0.5696875 -10.34375 0.0703125 C-9.43818359 -0.37554199 -8.53261719 -0.82139648 -7.59960938 -1.28076172 C-4.30739232 -2.19162493 -2.9729583 -1.57092578 0 0 Z " fill="#B97460" transform="translate(80,185)"/>
<path d="M0 0 C4.917692 3.31409678 9.65108212 7.30919597 11.875 12.9375 C12.24609375 15.33984375 12.24609375 15.33984375 12.3125 17.875 C12.37244141 19.12603516 12.37244141 19.12603516 12.43359375 20.40234375 C11.39772503 25.10359407 7.68482108 27.36012756 3.921875 30.04296875 C2.28992188 31.07357422 2.28992188 31.07357422 0.625 32.125 C0.02945313 32.50156738 -0.56609375 32.87813477 -1.1796875 33.26611328 C-10.59409427 39.17191012 -20.11659002 45.08967642 -30.125 49.9375 C-28.75039147 47.01154755 -27.1390382 44.49322652 -25.25 41.875 C-18.61122992 32.03858272 -17.09474071 21.64964208 -16.5625 10.0625 C-16.51931641 9.18335938 -16.47613281 8.30421875 -16.43164062 7.3984375 C-16.32630661 5.24494203 -16.22522351 3.09123936 -16.125 0.9375 C-10.73418751 -1.89757922 -5.77524053 -1.96358178 0 0 Z " fill="#66343E" transform="translate(207.125,131.0625)"/>
<path d="M0 0 C0.99 0.66 1.98 1.32 3 2 C3.36889648 4.16381836 3.36889648 4.16381836 3.37109375 6.83984375 C3.38551514 7.81542236 3.39993652 8.79100098 3.41479492 9.79614258 C3.4222876 10.83279053 3.42978027 11.86943848 3.4375 12.9375 C3.65549921 21.27069566 3.95209599 28.52792561 8 36 C8.49242188 36.91136719 8.98484375 37.82273438 9.4921875 38.76171875 C11.6820256 42.58031702 13.75373725 45.99455792 17 49 C16.505 49.99 16.505 49.99 16 51 C11.4937853 48.78400982 6.99159295 46.56011827 2.49291992 44.32885742 C0.96242119 43.57114467 -0.56914836 42.81559083 -2.10180664 42.06225586 C-4.30641131 40.97817635 -6.50703071 39.88635551 -8.70703125 38.79296875 C-9.39150833 38.45847214 -10.07598541 38.12397552 -10.78120422 37.77934265 C-16.93855021 34.70175892 -16.93855021 34.70175892 -19 32 C-21.22728794 25.31813617 -20.92843041 18.0946699 -18 11.6875 C-13.94478697 4.59660489 -8.78718909 -1.55068043 0 0 Z " fill="#67353E" transform="translate(58,131)"/>
<path d="M0 0 C3 0.125 3 0.125 4 1.125 C4.1875 4.0625 4.1875 4.0625 4 7.125 C2 9.125 2 9.125 -0.5 9.375 C-3 9.125 -3 9.125 -5 7.125 C-4.2912041 0.17880017 -4.2912041 0.17880017 0 0 Z " fill="#FD886A" transform="translate(180,70.875)"/>
<path d="M0 0 C2.625 0.375 2.625 0.375 5 1 C5.625 3.375 5.625 3.375 6 6 C5.34 6.66 4.68 7.32 4 8 C1.375 7.625 1.375 7.625 -1 7 C-1.625 4.625 -1.625 4.625 -2 2 C-1.34 1.34 -0.68 0.68 0 0 Z " fill="#FD876A" transform="translate(83,54)"/>
<path d="M0 0 C0.625 2.375 0.625 2.375 1 5 C0.34 5.66 -0.32 6.32 -1 7 C-3.625 6.625 -3.625 6.625 -6 6 C-6 4.02 -6 2.04 -6 0 C-3.50907189 -1.24546405 -2.58919267 -0.7767578 0 0 Z " fill="#FD866C" transform="translate(145,22)"/>
</svg>
